<svg id="レイヤー_2" data-name="レイヤー 2" xmlns="http://www.w3.org/2000/svg" viewBox="0 0 397.75 72.43"><path d="M777.81,473.08c0,1.69,0,3.51-.1,5.44a15.5,15.5,0,0,1-1.08,5.35,9.17,9.17,0,0,1-3.28,4.13q-2.29,1.67-6.71,1.67H747.33a8.54,8.54,0,0,0-5.14,1.46,4.61,4.61,0,0,0-2,3.92c0,2.16,0,4.59.05,7.27s0,5.12,0,7.28a2.1,2.1,0,0,1-2.16,1.74c-1.57,0-2.35-.58-2.35-1.74q0-3.72,0-7.28t-.05-7.28a7.17,7.17,0,0,1,.93-3.56,9.32,9.32,0,0,1,2.55-2.89,12.33,12.33,0,0,1,3.72-1.9,14.92,14.92,0,0,1,4.56-.67h19.21a8,8,0,0,0,4.41-1,5,5,0,0,0,2-2.74,13.79,13.79,0,0,0,.54-4.05v-5.16a5.21,5.21,0,0,0-2-4.17,7.61,7.61,0,0,0-5-1.63H739.88v12.63c0,1.16-.72,1.74-2.15,1.74s-2.06-.58-2.06-1.74V463.63h31a12.09,12.09,0,0,1,8.08,2.62A8.53,8.53,0,0,1,777.81,473.08Z" transform="translate(-612.32 -446.89)"/><path d="M837.1,473.08c-.07.9-.1,1.77-.1,2.62v2.62a9,9,0,0,1-3.09,6.82,11.44,11.44,0,0,1-8,2.7h-10.1c-2.68,0-4,1-4,3a3.92,3.92,0,0,0,1.07,2.14q5.21,3.87,10.24,7.71l10.15,7.71a1.69,1.69,0,0,1,.68,1.35c0,1.05-.75,1.58-2.25,1.58a2.59,2.59,0,0,1-1.47-.47l-10-7.6q-4.95-3.81-9.94-7.6v.08a6.33,6.33,0,0,1-2.75-4.91,5.29,5.29,0,0,1,3-5.14,16,16,0,0,1,7.3-1.51h8a8.42,8.42,0,0,0,4.06-.79,4.66,4.66,0,0,0,2.06-2.22,9.75,9.75,0,0,0,.74-3.5c.06-1.37.1-2.91.1-4.6a5.21,5.21,0,0,0-2-4.17,7.61,7.61,0,0,0-5-1.63H799.17V509.6c0,1.16-.72,1.74-2.15,1.74s-2.06-.58-2.06-1.74v-46h31a12.05,12.05,0,0,1,8.13,2.62A8.58,8.58,0,0,1,837.1,473.08Z" transform="translate(-612.32 -446.89)"/><path d="M862.38,509.83c0,1.17-.68,1.75-2,1.75s-2.16-.58-2.16-1.75V465.69c0-1.21.72-1.82,2.16-1.82s2,.61,2,1.82Z" transform="translate(-612.32 -446.89)"/><path d="M929,501.92a8.54,8.54,0,0,1-3,6.81,12,12,0,0,1-8.13,2.61H886.79a3.3,3.3,0,0,1-1.87-.52,1.58,1.58,0,0,1-.78-1.39q0-1.74,2.25-1.74h31.46a7.78,7.78,0,0,0,5-1.62,5.09,5.09,0,0,0,2-4.15v-5a12.2,12.2,0,0,0-.59-4,5,5,0,0,0-2.06-2.61,8.25,8.25,0,0,0-4.41-.95H894.53a11.86,11.86,0,0,1-8.09-2.7,8.59,8.59,0,0,1-3.09-6.74c-.06-1.12-.09-2.25-.09-3.42v-3.41a8.63,8.63,0,0,1,3-6.83c2-1.74,4.75-2.62,8.28-2.62h31.06c1.44,0,2.16.56,2.16,1.67a1.83,1.83,0,0,1-.69,1.35,2.13,2.13,0,0,1-1.47.63H894.53a7.76,7.76,0,0,0-5.1,1.63,5.18,5.18,0,0,0-2,4.17v6.83q0,5.79,7.06,5.79h23.32a11.53,11.53,0,0,1,8,2.69,9.09,9.09,0,0,1,3.09,6.81c0,1.16,0,2.28,0,3.36S929,500.76,929,501.92Z" transform="translate(-612.32 -446.89)"/><path d="M1010.07,509.59c0,1.17-.69,1.75-2.06,1.75s-2.16-.58-2.16-1.75q0-9.19,0-18.25t.05-18.26a5.16,5.16,0,0,0-2-4.13,7.5,7.5,0,0,0-5-1.67h-4.41q-6.27,0-7,3.89-2,9.61-3.78,19.09t-3.77,19.1c0,1.21-.72,1.82-2.16,1.82s-2.25-.61-2.25-1.82q-1.86-9.62-3.67-19.1t-3.78-19.09c-.45-2.59-2.71-3.89-6.76-3.89h-4.31a7.84,7.84,0,0,0-5.1,1.67,5.13,5.13,0,0,0-2.06,4.13v36.51c0,1.17-.68,1.75-2,1.75s-2.16-.58-2.16-1.75V473.08a8.58,8.58,0,0,1,3-6.83c2-1.74,4.8-2.62,8.33-2.62h4.21q9.79,0,11.17,7,1.19,5.88,2.26,11.63T977,493.8a12.14,12.14,0,0,1,1.08-1.07,8.53,8.53,0,0,0,1.08-1.16q1.08-5.24,2.11-10.47t2.1-10.48q1.27-7,11.17-7H999c3.47,0,6.18.88,8.14,2.62a8.72,8.72,0,0,1,2.94,6.83Z" transform="translate(-612.32 -446.89)"/><polygon points="37.71 72.43 42.63 39.04 32.51 27.76 37.71 72.43"/><polygon points="30.15 0 42.63 39.04 47.69 19.37 30.15 0"/><polygon points="55.06 27.76 42.63 39.04 68.94 43.08 55.06 27.76"/><polygon points="45.67 65.35 60.99 51.04 42.63 39.04 45.67 65.35"/><polygon points="28.59 12.34 21.22 21.99 26.64 19.61 28.59 12.34"/><polygon points="29.57 27.2 30.65 25.46 29.57 12.34 29.43 12.85 27.51 20.15 29.57 27.2"/><polygon points="31.08 26.55 29.75 28.61 27.98 38.48 32.42 40.43 31.08 26.55"/><polygon points="26.82 21.2 22.27 29.3 28.59 28.03 26.82 21.2"/><polygon points="25.73 21.02 20.42 23.26 12.58 34.07 20.86 29.73 25.73 21.02"/><polygon points="27.18 37.65 28.59 29.08 22.05 30.31 27.18 37.65"/><polygon points="19.88 39.7 26.71 38.48 21.4 31.32 19.88 39.7"/><polygon points="18.72 39.56 20.57 30.89 12.83 35.22 18.72 39.56"/><polygon points="22.27 46.43 26.71 39.56 19.88 40.79 22.27 46.43"/><polygon points="27.24 40.23 22.66 47.69 29.08 53.95 27.24 40.23"/><polygon points="27.22 40.03 27.24 40.23 27.25 40.21 27.22 40.03"/><polygon points="32.1 41.33 27.98 39.56 29.86 52.17 32.1 41.33"/><polygon points="30.2 55.35 35.24 64.75 32.71 42.67 30.2 55.35"/><polygon points="22.19 48.56 20.57 55.68 28.59 54.85 22.19 48.56"/><polygon points="21.43 47.22 18.9 41.22 12.58 45.87 21.43 47.22"/><polygon points="12.18 35.98 12.04 45.05 18.47 40.43 12.18 35.98"/><polygon points="21.43 48.02 12.83 46.68 19.88 55.25 21.43 48.02"/><polygon points="11.24 35.77 0 51.42 11.02 45.63 11.24 35.77"/><polygon points="11.46 46.68 11.24 46.68 0.14 52.39 10.41 56.33 19.16 55.93 11.46 46.68"/><polygon points="12.58 57.13 24.58 61.75 19.73 56.87 12.58 57.13"/><polygon points="20.86 56.69 26.39 62.48 34.73 65.73 29.57 55.68 20.86 56.69"/></svg>